PathFileType	4	(X/Y/Z)	/Users/itak/Documents/Research/Walk-IL/dataset/trc/00346_00011.trc
DataRate	CameraRate	NumFrames	NumMarkers	Units	OrigDataRate	OrigDataStartFrame	OrigNumFrames
100.000000	100.000000	4	53	mm	100.000000	183	734
Frame#	Time	RPSI			LPSI			L3			STRN			T10			C7			CLAV			RBAK			LBAK			LSHO			LUPA			LAEL			LAOL			LWTS			LWPS			LFRA			LIFD			LHPS			LHTS			RSHO			RUPA			RAEL			RAOL			RWTS			RWPS			RFRA			RIFD			RHTS			RHPS			RBHD			LFHD			RFHD			LBHD			LHIP			RHIP			RASI			LASI			LKNE			LTHI			LANK			LTIP			LTOE			LMT1			LMT5			LHEE			RKNE			RTHI			RANK			RTIP			RTOE			RMT1			RMT5			RHEE			
		X1	Y1	Z1	X2	Y2	Z2	X3	Y3	Z3	X4	Y4	Z4	X5	Y5	Z5	X6	Y6	Z6	X7	Y7	Z7	X8	Y8	Z8	X9	Y9	Z9	X10	Y10	Z10	X11	Y11	Z11	X12	Y12	Z12	X13	Y13	Z13	X14	Y14	Z14	X15	Y15	Z15	X16	Y16	Z16	X17	Y17	Z17	X18	Y18	Z18	X19	Y19	Z19	X20	Y20	Z20	X21	Y21	Z21	X22	Y22	Z22	X23	Y23	Z23	X24	Y24	Z24	X25	Y25	Z25	X26	Y26	Z26	X27	Y27	Z27	X28	Y28	Z28	X29	Y29	Z29	X30	Y30	Z30	X31	Y31	Z31	X32	Y32	Z32	X33	Y33	Z33	X34	Y34	Z34	X35	Y35	Z35	X36	Y36	Z36	X37	Y37	Z37	X38	Y38	Z38	X39	Y39	Z39	X40	Y40	Z40	X41	Y41	Z41	X42	Y42	Z42	X43	Y43	Z43	X44	Y44	Z44	X45	Y45	Z45	X46	Y46	Z46	X47	Y47	Z47	X48	Y48	Z48	X49	Y49	Z49	X50	Y50	Z50	X51	Y51	Z51	X52	Y52	Z52	X53	Y53	Z53	

184	1.83	555.8262329101562	962.5585327148438	980.2825927734375	458.3864440917969	962.9893798828125	894.3433837890625	499.1640319824219	1027.01708984375	939.0051879882812	652.1044311523438	1211.705322265625	756.2327270507812	482.9982604980469	1144.630493164062	929.0217895507812	495.384765625	1392.099731445312	882.6255493164062	615.6909790039062	1337.0634765625	781.6689453125	510.7098083496094	1254.6142578125	968.7879638671875	418.2066650390625	1351.903564453125	816.1598510742188	444.3447570800781	1369.177368164062	717.8798217773438	401.1399841308594	1247.726684570312	668.5101928710938	447.9032592773438	1056.553588867188	607.5198974609375	433.1554260253906	1022.446411132812	684.2095947265625	633.620361328125	887.345458984375	541.4884643554688	579.6146850585938	857.1182861328125	510.0467224121094	489.9345703125	967.5232543945312	570.088134765625	711.17822265625	753.1275024414062	505.2403564453125	611.0574340820312	795.1373291015625	497.8820190429688	667.4581298828125	825.9328002929688	501.6329650878906	648.12548828125	1383.48095703125	963.4844360351562	684.5858154296875	1321.747680664062	1019.816284179688	728.9454956054688	1057.842163085938	1053.890869140625	643.6885986328125	1044.29736328125	1013.854858398438	806.9169311523438	839.281005859375	948.5155029296875	816.5255126953125	818.9168090820312	1022.217590332031	758.3824462890625	991.5127563476562	1047.428833007812	832.5816650390625	671.0967407226562	927.1781005859375	847.7344360351562	742.81884765625	935.5150146484375	834.0719604492188	736.14111328125	1003.620239257812	597.5165405273438	1603.5703125	900.5133666992188	613.2003784179688	1600.967529296875	692.5346069335938	685.151611328125	1606.119384765625	763.472412109375	476.3165893554688	1592.69921875	819.2562255859375	437.54736328125	903.5647583007812	760.715087890625	694.6504516601562	920.0452880859375	987.072265625	725.0005493164062	951.0528564453125	879.717529296875	560.5826416015625	932.2694091796875	707.5595092773438	535.75537109375	445.0333557128906	784.1278076171875	510.6821594238281	584.0802612304688	759.8558959960938	515.5250244140625	45.67704391479492	923.0254516601562	522.8963012695312	227.6742553710938	844.2234497070312	695.8186645507812	40.10640716552734	807.1102905273438	681.1210327148438	26.11276817321777	885.535888671875	589.8375244140625	42.42067718505859	821.12158203125	543.2291870117188	41.38653182983398	993.0081787109375	843.6671142578125	501.3327026367188	835.2543334960938	800.8995971679688	744.4774169921875	895.998046875	783.29736328125	97.48529052734375	962.2992553710938	844.2713623046875	380.8862609863281	846.3302001953125	889.5341796875	56.13521957397461	799.3919067382812	819.3966674804688	57.85872650146484	804.4152221679688	866.6982421875	65.68064117431641	912.8701782226562	714.5284423828125	106.0835113525391	959.7133178710938	
185	1.84	564.105224609375	962.3246459960938	975.1336059570312	465.0088500976562	962.6827392578125	891.2545166015625	505.7025756835938	1027.144653320312	935.5365600585938	655.7467651367188	1211.02099609375	749.3389892578125	489.3949890136719	1144.134033203125	924.6988525390625	501.0667114257812	1391.453002929688	878.0104370117188	619.8626708984375	1336.45556640625	775.259765625	517.758056640625	1254.039306640625	963.801513671875	422.8485412597656	1351.368530273438	812.612060546875	447.5786743164062	1368.5712890625	713.9740600585938	403.920654296875	1247.00048828125	665.147705078125	451.1002502441406	1056.050659179688	603.325927734375	437.2515563964844	1021.73486328125	680.0473022460938	638.4796142578125	889.6522827148438	535.422119140625	584.73193359375	858.7839965820312	504.1931457519531	493.9439392089844	967.7530517578125	565.3233032226562	717.8988037109375	756.9115600585938	497.8323364257812	617.0537109375	797.3439331054688	491.4828491210938	672.9559326171875	829.0161743164062	494.9964904785156	654.9945068359375	1382.967407226562	956.467041015625	692.1583862304688	1321.359252929688	1012.335815429688	736.3915405273438	1057.61376953125	1046.916259765625	650.9791259765625	1043.869873046875	1007.273620605469	813.016357421875	838.2980346679688	941.772705078125	823.754150390625	818.5926513671875	1015.423156738281	765.7324829101562	991.2239990234375	1040.41357421875	838.4774169921875	669.8289794921875	921.7075805664062	853.5144653320312	741.642578125	928.9927368164062	841.1893310546875	735.6981811523438	997.367431640625	603.4918212890625	1602.869750976562	894.5173950195312	616.1932983398438	1600.474731445312	686.2484130859375	689.181640625	1605.561767578125	756.2163696289062	481.2663879394531	1592.046752929688	814.9228515625	441.2874755859375	903.0209350585938	758.1492309570312	703.0197143554688	919.844970703125	979.144287109375	731.161376953125	950.7649536132812	871.1880493164062	563.2123413085938	931.5652465820312	702.4874267578125	537.8243408203125	444.5733337402344	781.4881591796875	513.2417602539062	583.6217651367188	757.35400390625	515.6189575195312	45.80876159667969	922.8702392578125	524.033447265625	227.5158843994141	842.9466552734375	695.8922729492188	39.89387893676758	807.0158081054688	681.0651245117188	25.9512767791748	885.6904907226562	589.9285888671875	42.34135437011719	821.0780029296875	543.2590942382812	41.79563522338867	992.8432006835938	849.179931640625	500.1289672851562	824.8343505859375	807.7150268554688	744.3558349609375	885.9161376953125	807.509765625	89.58840942382812	936.6694946289062	854.050537109375	379.6685485839844	831.4138793945312	908.609130859375	58.77201080322266	768.387939453125	838.7117919921875	57.93048858642578	776.1334838867188	889.959716796875	62.66461944580078	882.83154296875	738.5598754882812	96.02297210693359	937.1054077148438	
186	1.85	572.4066772460938	961.9765014648438	969.8211059570312	471.7076721191406	962.28515625	888.023681640625	512.3358764648438	1027.177124023438	931.9920043945312	659.3938598632812	1210.2333984375	742.4462890625	495.8644104003906	1143.492065429688	920.19384765625	506.8357543945312	1390.676635742188	873.3118286132812	624.0158081054688	1335.769409179688	768.7622680664062	524.8853759765625	1253.3583984375	958.6799926757812	427.5364990234375	1350.714477539062	809.0404052734375	450.8328247070312	1367.843505859375	710.0595092773438	406.7123413085938	1246.172485351562	661.8094482421875	454.1921997070312	1055.396362304688	599.2598266601562	441.1934509277344	1020.921997070312	676.0267944335938	642.99267578125	891.5744018554688	529.5861206054688	589.4805908203125	860.1097412109375	498.5687866210938	497.7415771484375	967.7682495117188	560.7390747070312	724.0535888671875	760.1902465820312	490.7959289550781	622.6001586914062	799.1788330078125	485.3536682128906	678.0382690429688	831.6541748046875	488.6316833496094	661.85595703125	1382.373657226562	949.3636474609375	699.7069702148438	1320.901733398438	1004.740844726562	743.9337768554688	1057.346313476562	1039.7958984375	658.3394775390625	1043.369750976562	1000.687194824219	818.9299926757812	837.1327514648438	934.9248657226562	831.1122436523438	818.2593994140625	1008.477661132812	773.1820678710938	990.912841796875	1033.18798828125	844.075439453125	668.3302001953125	916.394287109375	859.0296630859375	740.2570190429688	922.4130249023438	848.35888671875	735.2080078125	991.0653076171875	609.4908447265625	1602.087158203125	888.4490356445312	619.2139282226562	1599.87646484375	679.9089965820312	693.2005615234375	1604.893188476562	748.9033203125	486.3169555664062	1591.314208984375	810.5559692382812	445.1771850585938	902.4061279296875	755.4652099609375	711.3211059570312	919.4429931640625	971.1058349609375	737.3255615234375	950.3104248046875	862.601318359375	565.9556884765625	930.7972412109375	697.3934326171875	540.188720703125	444.0389709472656	778.575439453125	516.0545654296875	583.0836181640625	754.5989990234375	515.7382202148438	45.97734069824219	922.6911010742188	525.3553466796875	227.3208770751953	841.5250244140625	696.0103759765625	39.66825485229492	806.9132080078125	680.9930419921875	25.76900672912598	885.8757934570312	590.0274047851562	42.28205490112305	821.0282592773438	543.32568359375	42.21423721313477	992.6926879882812	854.3303833007812	498.4807434082031	814.9845581054688	814.0780639648438	743.7489624023438	876.1576538085938	831.08447265625	82.49300384521484	910.1538696289062	863.3639526367188	378.4076843261719	816.8040161132812	926.1248779296875	62.20482635498047	736.9395751953125	856.6785888671875	58.86195755004883	747.4308471679688	912.1301879882812	60.46931457519531	851.94775390625	762.15869140625	86.74930572509766	913.6643676757812	
187	1.86	580.739013671875	961.49267578125	964.336181640625	478.4780578613281	961.78857421875	884.6661987304688	519.087158203125	1027.079833984375	928.3479614257812	663.0650634765625	1209.349365234375	735.5231323242188	502.4398193359375	1142.715087890625	915.5547485351562	512.6935424804688	1389.773193359375	868.5307006835938	628.1542358398438	1334.995971679688	762.1768798828125	532.0819702148438	1252.56640625	953.4459228515625	432.2821350097656	1349.926025390625	805.4486694335938	454.1036682128906	1366.985107421875	706.1438598632812	409.5234375	1245.236083984375	658.4993286132812	457.1903686523438	1054.583251953125	595.3245849609375	444.9992980957031	1019.997741699219	672.15185546875	647.1694946289062	893.0919189453125	523.960693359375	593.8616333007812	861.0697021484375	493.1682434082031	501.3299560546875	967.5534057617188	556.33544921875	729.6470336914062	762.9260864257812	484.1243286132812	627.7022705078125	800.6083374023438	479.4915466308594	682.7083129882812	833.8141479492188	482.5242004394531	668.7232055664062	1381.690063476562	942.1694946289062	707.2450561523438	1320.36083984375	997.0457763671875	751.5919189453125	1057.024047851562	1032.521240234375	665.7633666992188	1042.799072265625	994.1292724609375	824.7238159179688	835.7980346679688	927.9966430664062	838.5436401367188	817.8574829101562	1001.415222167969	780.7318725585938	990.554443359375	1025.76708984375	849.4273681640625	666.6242065429688	911.1776123046875	864.3464965820312	738.6813354492188	915.8015747070312	855.5064086914062	734.620849609375	984.7050170898438	615.5140991210938	1601.21337890625	882.3057861328125	622.262451171875	1599.161865234375	673.52734375	697.2051391601562	1604.106811523438	741.5294799804688	491.4535217285156	1590.49169921875	806.1441650390625	449.199951171875	901.7190551757812	752.66259765625	719.5729370117188	918.8140258789062	962.9343872070312	743.4940185546875	949.6771240234375	853.934814453125	568.80029296875	929.963134765625	692.2627563476562	542.8096313476562	443.4163513183594	775.3798217773438	519.0750732421875	582.4602661132812	751.5787963867188	515.8876342773438	46.18373489379883	922.4969482421875	526.8519897460938	227.0811157226562	839.9750366210938	696.1722412109375	39.42549896240234	806.7987060546875	680.9308471679688	25.60918807983398	886.0453491210938	590.1350708007812	42.24110412597656	820.9765014648438	543.4431762695312	42.64893341064453	992.5648803710938	859.16748046875	496.449951171875	805.6942749023438	820.0469360351562	742.6487426757812	866.70849609375	853.859375	76.35123443603516	882.8794555664062	872.224365234375	377.1676940917969	802.5550537109375	942.0467529296875	66.54378509521484	705.2919921875	873.2476806640625	60.71541213989258	718.5166625976562	933.072265625	59.21852874755859	820.4291381835938	785.1446533203125	78.39422607421875	889.4750366210938	
